<svg width="128" height="28" viewBox="0 0 128 28" fill="none" xmlns="http://www.w3.org/2000/svg">
<path fill-rule="evenodd" clip-rule="evenodd" d="M93.4115 0H86.7154V22.0089H93.4115V0ZM118.746 27.6879H99.9981V5.74863H118.746C126.568 5.74863 127.999 8.26354 127.999 16.7483C128.031 25.2018 126.568 27.6879 118.746 27.6879ZM19.4487 5.74862H1.0885e-05L0 5.74863V27.688H20.2401C24.9881 27.688 26.9364 26.0924 26.9364 21.6118C26.9364 18.9424 25.9321 17.3166 23.9234 16.4262C25.1103 15.8735 26.1457 14.3708 26.1457 11.9466C26.1457 6.14742 22.6758 5.74862 19.4487 5.74862ZM6.69564 14.0023V11.0563H18.5663C19.5705 11.0563 20.2401 11.4244 20.2401 12.5298C20.2401 13.6019 19.5705 14.0023 18.5663 14.0023H6.69564ZM6.69564 22.3773V18.9108L18.2931 18.9108C19.4487 18.9108 20.2401 19.2198 20.2401 20.7226C20.2401 21.7964 19.4487 22.3773 18.2931 22.3773H6.69564ZM45.6562 5.44146C59.687 5.44146 60.0532 6.23862 60.0532 16.7323C60.0219 27.2571 59.687 28 45.6562 28C31.5641 27.968 31.2885 27.2571 31.2885 16.7323C31.2885 6.23862 31.5641 5.44146 45.6562 5.44146ZM38.6756 12.0651C37.9855 12.832 37.9855 14.22 37.9855 16.7323C37.9855 19.231 37.9855 20.6119 38.6721 21.3751C39.5204 22.3181 41.4168 22.3181 45.6562 22.3181C49.9173 22.3181 51.8206 22.3181 52.6708 21.3718C53.3571 20.6079 53.3571 19.2274 53.3571 16.7323C53.3571 14.2164 53.3571 12.828 52.6667 12.0618C51.8165 11.1184 49.9194 11.1184 45.6864 11.1184C41.4317 11.1184 39.5277 11.1184 38.6756 12.0651ZM64.8311 27.6879V5.74861L71.527 5.74862V22.0107H86.7162V27.6879H64.8311ZM106.694 11.4244V22.0107H117.621C120.512 22.0107 121.303 20.747 121.303 16.7483C121.334 12.7184 120.512 11.4244 117.621 11.4244H106.694Z" fill="white"/>
</svg>
